<?xml version="1.0" encoding="UTF-8" standalone="no"?>
<!-- Created with Inkscape (http://www.inkscape.org/) -->

<svg
   xmlns:dc="http://purl.org/dc/elements/1.1/"
   xmlns:cc="http://creativecommons.org/ns#"
   xmlns:rdf="http://www.w3.org/1999/02/22-rdf-syntax-ns#"
   xmlns:svg="http://www.w3.org/2000/svg"
   xmlns="http://www.w3.org/2000/svg"
   xmlns:sodipodi="http://sodipodi.sourceforge.net/DTD/sodipodi-0.dtd"
   xmlns:inkscape="http://www.inkscape.org/namespaces/inkscape"
   width="654.28571"
   height="457.14288"
   id="svg3968"
   version="1.1"
   inkscape:version="0.48.4 r9939"
   inkscape:export-filename="/home/joost/cellgrowth.png"
   inkscape:export-xdpi="90"
   inkscape:export-ydpi="90"
   sodipodi:docname="cellgrowth.svg">
  <defs
     id="defs3970" />
  <sodipodi:namedview
     id="base"
     pagecolor="#ffffff"
     bordercolor="#666666"
     borderopacity="1.0"
     inkscape:pageopacity="0.0"
     inkscape:pageshadow="2"
     inkscape:zoom="0.98994949"
     inkscape:cx="224.88213"
     inkscape:cy="165.0237"
     inkscape:document-units="px"
     inkscape:current-layer="layer1"
     showgrid="false"
     fit-margin-top="0"
     fit-margin-left="0"
     fit-margin-right="0"
     fit-margin-bottom="0"
     inkscape:window-width="1920"
     inkscape:window-height="1023"
     inkscape:window-x="0"
     inkscape:window-y="27"
     inkscape:window-maximized="1"
     showguides="true"
     inkscape:guide-bbox="true" />
  <metadata
     id="metadata3973">
    <rdf:RDF>
      <cc:Work
         rdf:about="">
        <dc:format>image/svg+xml</dc:format>
        <dc:type
           rdf:resource="http://purl.org/dc/dcmitype/StillImage" />
        <dc:title />
      </cc:Work>
    </rdf:RDF>
  </metadata>
  <g
     inkscape:label="Layer 1"
     inkscape:groupmode="layer"
     id="layer1"
     transform="translate(11.390901,-289.11923)">
    <rect
       style="fill:#ffffff;fill-opacity:1;stroke:#000000;stroke-width:0;stroke-linecap:round;stroke-miterlimit:4;stroke-opacity:1;stroke-dasharray:none;stroke-dashoffset:0"
       id="rect3784"
       width="654.28571"
       height="457.14288"
       x="-11.390901"
       y="289.11923"
       rx="0"
       ry="0" />
    <path
       sodipodi:type="arc"
       style="fill:#000000;fill-opacity:1;stroke:#ffffff;stroke-width:0;stroke-linecap:round;stroke-miterlimit:4;stroke-opacity:1;stroke-dasharray:none;stroke-dashoffset:0"
       id="path3980"
       sodipodi:cx="422.85715"
       sodipodi:cy="375.21933"
       sodipodi:rx="88.571426"
       sodipodi:ry="88.571426"
       d="m 511.42857,375.21933 c 0,48.91665 -39.65477,88.57143 -88.57142,88.57143 -48.91665,0 -88.57143,-39.65478 -88.57143,-88.57143 0,-48.91665 39.65478,-88.57143 88.57143,-88.57143 48.91665,0 88.57142,39.65478 88.57142,88.57143 z"
       transform="matrix(1.2794212,0,0,1.2794212,-414.65457,129.16407)" />
    <path
       sodipodi:type="arc"
       style="fill:#000000;fill-opacity:1;stroke:#ffffff;stroke-width:0;stroke-linecap:round;stroke-miterlimit:4;stroke-opacity:1;stroke-dasharray:none;stroke-dashoffset:0"
       id="path3980-0"
       sodipodi:cx="422.85715"
       sodipodi:cy="375.21933"
       sodipodi:rx="88.571426"
       sodipodi:ry="88.571426"
       d="m 511.42857,375.21933 c 0,48.91665 -39.65477,88.57143 -88.57142,88.57143 -48.91665,0 -88.57143,-39.65478 -88.57143,-88.57143 0,-48.91665 39.65478,-88.57143 88.57143,-88.57143 48.91665,0 88.57142,39.65478 88.57142,88.57143 z"
       transform="translate(55.372754,30.068174)"
       inkscape:export-xdpi="90"
       inkscape:export-ydpi="90" />
    <path
       sodipodi:type="arc"
       style="fill:#000000;fill-opacity:1;stroke:#ffffff;stroke-width:0;stroke-linecap:round;stroke-miterlimit:4;stroke-opacity:1;stroke-dasharray:none;stroke-dashoffset:0"
       id="path3980-2"
       sodipodi:cx="422.85715"
       sodipodi:cy="375.21933"
       sodipodi:rx="88.571426"
       sodipodi:ry="88.571426"
       d="m 511.42857,375.21933 c 0,48.91665 -39.65477,88.57143 -88.57142,88.57143 -48.91665,0 -88.57143,-39.65478 -88.57143,-88.57143 0,-48.91665 39.65478,-88.57143 88.57143,-88.57143 48.91665,0 88.57142,39.65478 88.57142,88.57143 z"
       transform="translate(106.81724,234.07545)" />
    <path
       sodipodi:nodetypes="cccccccc"
       inkscape:connector-curvature="0"
       d="m 234.57217,531.60253 101.92624,-63.46924 -17.43991,-28.00699 66.20726,10.31695 -20.07682,64.04583 -17.43988,-28.00697 -101.92621,63.46923 z"
       style="fill:#000000;fill-opacity:1;stroke:none"
       id="path4052" />
    <path
       sodipodi:nodetypes="cccccccc"
       inkscape:connector-curvature="0"
       d="m 253.39432,604.11467 123.2551,-1.50445 -0.41338,-33.86767 52.64179,44.27853 -51.6979,45.55206 -0.41341,-33.86765 -123.25506,1.50444 z"
       style="fill:#000000;fill-opacity:1;stroke:none"
       id="path4052-0" />
  </g>
</svg>
