<?xml version="1.0" encoding="UTF-8" standalone="no"?>
<!-- Created with Inkscape (http://www.inkscape.org/) -->

<svg
   xmlns:dc="http://purl.org/dc/elements/1.1/"
   xmlns:cc="http://creativecommons.org/ns#"
   xmlns:rdf="http://www.w3.org/1999/02/22-rdf-syntax-ns#"
   xmlns:svg="http://www.w3.org/2000/svg"
   xmlns="http://www.w3.org/2000/svg"
   xmlns:sodipodi="http://sodipodi.sourceforge.net/DTD/sodipodi-0.dtd"
   xmlns:inkscape="http://www.inkscape.org/namespaces/inkscape"
   width="279.375"
   height="200.8125"
   id="svg4580"
   version="1.1"
   inkscape:version="0.48.4 r9939"
   inkscape:export-filename="/home/joost/lipid.png"
   inkscape:export-xdpi="90"
   inkscape:export-ydpi="90"
   sodipodi:docname="lipid.svg">
  <defs
     id="defs4582" />
  <sodipodi:namedview
     id="base"
     pagecolor="#ffffff"
     bordercolor="#666666"
     borderopacity="1.0"
     inkscape:pageopacity="0.0"
     inkscape:pageshadow="2"
     inkscape:zoom="2.8"
     inkscape:cx="61.058649"
     inkscape:cy="96.433273"
     inkscape:document-units="px"
     inkscape:current-layer="layer1"
     showgrid="false"
     fit-margin-top="0"
     fit-margin-left="0"
     fit-margin-right="0"
     fit-margin-bottom="0"
     showguides="true"
     inkscape:guide-bbox="true"
     inkscape:window-width="1920"
     inkscape:window-height="1023"
     inkscape:window-x="0"
     inkscape:window-y="27"
     inkscape:window-maximized="1" />
  <metadata
     id="metadata4585">
    <rdf:RDF>
      <cc:Work
         rdf:about="">
        <dc:format>image/svg+xml</dc:format>
        <dc:type
           rdf:resource="http://purl.org/dc/dcmitype/StillImage" />
        <dc:title />
      </cc:Work>
    </rdf:RDF>
  </metadata>
  <g
     inkscape:label="Layer 1"
     inkscape:groupmode="layer"
     id="layer1"
     transform="translate(-61.1875,-267.21875)">
    <rect
       style="fill:#ffffff;fill-opacity:1;stroke:#333333;stroke-width:0;stroke-linecap:round;stroke-miterlimit:4;stroke-opacity:1;stroke-dasharray:none;stroke-dashoffset:0"
       id="rect5214"
       width="279.28571"
       height="200.71428"
       x="61.236599"
       y="267.26779"
       rx="0"
       ry="0" />
    <path
       sodipodi:type="arc"
       style="fill:#000000;fill-opacity:1;stroke:none"
       id="path4588"
       sodipodi:cx="136.07143"
       sodipodi:cy="440.57648"
       sodipodi:rx="41.07143"
       sodipodi:ry="41.07143"
       d="m 177.14286,440.57648 a 41.07143,41.07143 0 1 1 -82.142864,0 41.07143,41.07143 0 1 1 82.142864,0 z"
       transform="matrix(0.49849139,0.1186899,-0.11897512,0.49903529,78.797841,144.54297)" />
    <path
       sodipodi:type="arc"
       style="fill:#000000;fill-opacity:1;stroke:none"
       id="path4590"
       sodipodi:cx="235.35715"
       sodipodi:cy="388.43362"
       sodipodi:rx="40.357143"
       sodipodi:ry="40.357143"
       d="m 275.71429,388.43362 a 40.357143,40.357143 0 1 1 -80.71429,0 40.357143,40.357143 0 1 1 80.71429,0 z"
       transform="matrix(0.49849139,0.1186899,-0.11897512,0.49903529,61.273621,133.40033)" />
    <path
       sodipodi:type="arc"
       style="fill:#000000;fill-opacity:1;stroke:none"
       id="path4592"
       sodipodi:cx="366.78571"
       sodipodi:cy="364.14789"
       sodipodi:rx="47.5"
       sodipodi:ry="47.5"
       d="m 414.28571,364.14789 a 47.5,47.5 0 1 1 -95,0 47.5,47.5 0 1 1 95,0 z"
       transform="matrix(0.44041918,0.10486302,-0.10511501,0.44089972,52.794732,131.45563)" />
    <path
       sodipodi:type="arc"
       style="fill:#000000;fill-opacity:1;stroke:none"
       id="path4592-0"
       sodipodi:cx="366.78571"
       sodipodi:cy="364.14789"
       sodipodi:rx="47.5"
       sodipodi:ry="47.5"
       d="m 414.28571,364.14789 a 47.5,47.5 0 1 1 -95,0 47.5,47.5 0 1 1 95,0 z"
       transform="matrix(0.44041918,0.10486302,-0.10511501,0.44089972,96.312565,111.98617)" />
    <path
       sodipodi:type="arc"
       style="fill:#000000;fill-opacity:1;stroke:none"
       id="path4592-7"
       sodipodi:cx="366.78571"
       sodipodi:cy="364.14789"
       sodipodi:rx="47.5"
       sodipodi:ry="47.5"
       d="m 414.28571,364.14789 a 47.5,47.5 0 1 1 -95,0 47.5,47.5 0 1 1 95,0 z"
       transform="matrix(0.44041918,0.10486302,-0.10511501,0.44089972,144.91356,98.916456)" />
    <path
       sodipodi:type="arc"
       style="fill:#000000;fill-opacity:1;stroke:none"
       id="path4592-8"
       sodipodi:cx="366.78571"
       sodipodi:cy="364.14789"
       sodipodi:rx="47.5"
       sodipodi:ry="47.5"
       d="m 414.28571,364.14789 a 47.5,47.5 0 1 1 -95,0 47.5,47.5 0 1 1 95,0 z"
       transform="matrix(0.44041918,0.10486302,-0.10511501,0.44089972,9.7100641,240.81325)" />
    <path
       sodipodi:type="arc"
       style="fill:#000000;fill-opacity:1;stroke:none"
       id="path4592-9"
       sodipodi:cx="366.78571"
       sodipodi:cy="364.14789"
       sodipodi:rx="47.5"
       sodipodi:ry="47.5"
       d="m 414.28571,364.14789 a 47.5,47.5 0 1 1 -95,0 47.5,47.5 0 1 1 95,0 z"
       transform="matrix(0.44041918,0.10486302,-0.10511501,0.44089972,47.368249,217.95595)" />
    <path
       sodipodi:type="arc"
       style="fill:#000000;fill-opacity:1;stroke:none"
       id="path4592-6"
       sodipodi:cx="366.78571"
       sodipodi:cy="364.14789"
       sodipodi:rx="47.5"
       sodipodi:ry="47.5"
       d="m 414.28571,364.14789 a 47.5,47.5 0 1 1 -95,0 47.5,47.5 0 1 1 95,0 z"
       transform="matrix(0.44041918,0.10486302,-0.10511501,0.44089972,87.558505,196.61205)" />
    <path
       sodipodi:type="arc"
       style="fill:#000000;fill-opacity:1;stroke:none"
       id="path4592-63"
       sodipodi:cx="366.78571"
       sodipodi:cy="364.14789"
       sodipodi:rx="47.5"
       sodipodi:ry="47.5"
       d="m 414.28571,364.14789 a 47.5,47.5 0 1 1 -95,0 47.5,47.5 0 1 1 95,0 z"
       transform="matrix(0.44041918,0.10486302,-0.10511501,0.44089972,130.00332,178.43854)" />
    <path
       sodipodi:type="arc"
       style="fill:#000000;fill-opacity:1;stroke:none"
       id="path4592-94"
       sodipodi:cx="366.78571"
       sodipodi:cy="364.14789"
       sodipodi:rx="47.5"
       sodipodi:ry="47.5"
       d="m 414.28571,364.14789 a 47.5,47.5 0 1 1 -95,0 47.5,47.5 0 1 1 95,0 z"
       transform="matrix(0.44041918,0.10486302,-0.10511501,0.44089972,173.48013,160.6655)" />
    <path
       style="fill:none;stroke:#000000;stroke-width:9.69999981;stroke-linecap:butt;stroke-linejoin:miter;stroke-miterlimit:4;stroke-opacity:1;stroke-dasharray:none"
       d="m 86.009364,383.07874 c 27.344596,21.02476 31.019246,37.08955 48.765176,71.03224 -6.18215,-24.58287 4.93467,-72.77176 -6.79324,-98.67506 18.73218,3.78257 36.15701,26.15562 44.66109,70.56629 -4.03075,-15.55413 12.10298,-59.92243 -3.22489,-91.6172 14.68396,9.48126 27.68778,20.47856 42.15116,63.80486 -3.72042,-21.7142 22.53286,-45.88085 6.77701,-80.57204 35.16672,28.70226 18.75752,41.17971 36.38678,62.31929 23.17725,-22.36792 1.42466,-99.23178 13.70701,-71.49161 -3.57692,-25.55912 30.22412,18.89686 25.28686,55.06292"
       id="path4656"
       inkscape:connector-curvature="0"
       sodipodi:nodetypes="cccccccccc" />
    <path
       style="fill:none;stroke:#000000;stroke-width:8;stroke-linecap:butt;stroke-linejoin:miter;stroke-miterlimit:4;stroke-opacity:1;stroke-dasharray:none"
       d="M 73.282617,398.93783 C 149.78533,327.87178 197.72669,315.32307 301.73599,284.43564"
       id="path5166"
       inkscape:connector-curvature="0"
       sodipodi:nodetypes="cc" />
    <path
       style="fill:none;stroke:#000000;stroke-width:8;stroke-linecap:butt;stroke-linejoin:miter;stroke-miterlimit:4;stroke-opacity:1;stroke-dasharray:none"
       d="M 112.80847,456.17658 C 183.07379,398.68542 243.85953,376.35123 327.21018,351.67232"
       id="path5166-1"
       inkscape:connector-curvature="0"
       sodipodi:nodetypes="cc" />
  </g>
</svg>
