<?xml version="1.0" encoding="UTF-8" standalone="no"?>
<!-- Created with Inkscape (http://www.inkscape.org/) -->

<svg
   xmlns:dc="http://purl.org/dc/elements/1.1/"
   xmlns:cc="http://creativecommons.org/ns#"
   xmlns:rdf="http://www.w3.org/1999/02/22-rdf-syntax-ns#"
   xmlns:svg="http://www.w3.org/2000/svg"
   xmlns="http://www.w3.org/2000/svg"
   xmlns:sodipodi="http://sodipodi.sourceforge.net/DTD/sodipodi-0.dtd"
   xmlns:inkscape="http://www.inkscape.org/namespaces/inkscape"
   width="548.125"
   height="376.28125"
   id="svg4825"
   version="1.1"
   inkscape:version="0.48.4 r9939"
   sodipodi:docname="protein.svg">
  <defs
     id="defs4827" />
  <sodipodi:namedview
     id="base"
     pagecolor="#ffffff"
     bordercolor="#666666"
     borderopacity="1.0"
     inkscape:pageopacity="0.0"
     inkscape:pageshadow="2"
     inkscape:zoom="1.8257467"
     inkscape:cx="201.64788"
     inkscape:cy="202.5096"
     inkscape:document-units="px"
     inkscape:current-layer="layer1"
     showgrid="false"
     fit-margin-top="0"
     fit-margin-left="0"
     fit-margin-right="0"
     fit-margin-bottom="0"
     inkscape:window-width="1920"
     inkscape:window-height="1023"
     inkscape:window-x="0"
     inkscape:window-y="27"
     inkscape:window-maximized="1" />
  <metadata
     id="metadata4830">
    <rdf:RDF>
      <cc:Work
         rdf:about="">
        <dc:format>image/svg+xml</dc:format>
        <dc:type
           rdf:resource="http://purl.org/dc/dcmitype/StillImage" />
        <dc:title></dc:title>
      </cc:Work>
    </rdf:RDF>
  </metadata>
  <g
     inkscape:label="Layer 1"
     inkscape:groupmode="layer"
     id="layer1"
     transform="translate(-130.9375,-195.34375)">
    <rect
       style="fill:#ffffff;fill-opacity:1;stroke:#000000;stroke-width:0;stroke-linecap:round;stroke-miterlimit:4;stroke-opacity:1;stroke-dasharray:none;stroke-dashoffset:0"
       id="rect5589"
       width="548.0257"
       height="376.19745"
       x="130.9769"
       y="195.39114" />
    <path
       sodipodi:type="arc"
       style="fill:#000000;fill-opacity:1;stroke:#000000;stroke-width:0;stroke-linecap:round;stroke-miterlimit:4;stroke-opacity:1;stroke-dasharray:none;stroke-dashoffset:0"
       id="path5624"
       sodipodi:cx="279.30719"
       sodipodi:cy="79.878265"
       sodipodi:rx="34.345188"
       sodipodi:ry="34.345188"
       d="m 313.65238,79.878265 c 0,18.968324 -15.37687,34.345185 -34.34519,34.345185 -18.96832,0 -34.34519,-15.376861 -34.34519,-34.345185 0,-18.968323 15.37687,-34.345188 34.34519,-34.345188 18.96832,0 34.34519,15.376865 34.34519,34.345188 z"
       transform="matrix(1.3943355,0,0,1.3943355,-83.477376,192.06499)" />
    <path
       sodipodi:type="arc"
       style="fill:#000000;fill-opacity:1;stroke:#000000;stroke-width:0;stroke-linecap:round;stroke-miterlimit:4;stroke-opacity:1;stroke-dasharray:none;stroke-dashoffset:0"
       id="path5624-4"
       sodipodi:cx="279.30719"
       sodipodi:cy="79.878265"
       sodipodi:rx="34.345188"
       sodipodi:ry="34.345188"
       d="m 313.65238,79.878265 c 0,18.968324 -15.37687,34.345185 -34.34519,34.345185 -18.96832,0 -34.34519,-15.376861 -34.34519,-34.345185 0,-18.968323 15.37687,-34.345188 34.34519,-34.345188 18.96832,0 34.34519,15.376865 34.34519,34.345188 z"
       transform="matrix(1.3943355,0,0,1.3943355,-196.78064,363.80057)" />
    <path
       sodipodi:type="arc"
       style="fill:#000000;fill-opacity:1;stroke:#000000;stroke-width:0;stroke-linecap:round;stroke-miterlimit:4;stroke-opacity:1;stroke-dasharray:none;stroke-dashoffset:0"
       id="path5624-0"
       sodipodi:cx="279.30719"
       sodipodi:cy="79.878265"
       sodipodi:rx="34.345188"
       sodipodi:ry="34.345188"
       d="m 313.65238,79.878265 c 0,18.968324 -15.37687,34.345185 -34.34519,34.345185 -18.96832,0 -34.34519,-15.376861 -34.34519,-34.345185 0,-18.968323 15.37687,-34.345188 34.34519,-34.345188 18.96832,0 34.34519,15.376865 34.34519,34.345188 z"
       transform="matrix(1.3943355,0,0,1.3943355,51.915766,320.20141)" />
    <path
       id="path5655-1"
       style="fill:#000000;fill-opacity:1;stroke:#000000;stroke-width:1px;stroke-linecap:butt;stroke-linejoin:miter;stroke-opacity:1"
       d="m 215.49175,482.69547 c 21.5713,-79.53987 55.50661,-121.15345 99.17534,-148.54466 L 270.20919,309.13 c -1.57839,24.75743 -18.94066,82.96376 -87.33743,134.05891 z"
       inkscape:connector-curvature="0"
       sodipodi:nodetypes="ccccc" />
    <path
       id="path5655-1-2"
       style="fill:#000000;fill-opacity:1;stroke:#000000;stroke-width:1px;stroke-linecap:butt;stroke-linejoin:miter;stroke-opacity:1"
       d="M 221.29952,501.00793 C 304.3876,456.89795 365.97203,449.36769 423.56888,459.05347 L 408.7229,410.00325 c -21.75436,17.25494 -83.81819,48.45186 -180.81176,39.35031 z"
       inkscape:connector-curvature="0"
       sodipodi:nodetypes="ccccc" />
    <path
       id="path5655-1-2-3"
       style="fill:#000000;fill-opacity:1;stroke:#000000;stroke-width:0.99999988px;stroke-linecap:butt;stroke-linejoin:miter;stroke-opacity:1"
       d="M 452.49884,395.78968 C 384.10346,370.97985 357.06929,347.46594 347.51431,322.06753 l -41.3088,16.02799 c 23.27243,5.33369 72.71435,24.22249 95.58354,65.52532 z"
       inkscape:connector-curvature="0"
       sodipodi:nodetypes="ccccc" />
    <path
       sodipodi:type="arc"
       style="fill:#000000;fill-opacity:1;stroke:#000000;stroke-width:0;stroke-linecap:round;stroke-miterlimit:4;stroke-opacity:1;stroke-dasharray:none;stroke-dashoffset:0"
       id="path5624-45"
       sodipodi:cx="279.30719"
       sodipodi:cy="79.878265"
       sodipodi:rx="34.345188"
       sodipodi:ry="34.345188"
       d="m 313.65238,79.878265 c 0,18.968324 -15.37687,34.345185 -34.34519,34.345185 -18.96832,0 -34.34519,-15.376861 -34.34519,-34.345185 0,-18.968323 15.37687,-34.345188 34.34519,-34.345188 18.96832,0 34.34519,15.376865 34.34519,34.345188 z"
       transform="matrix(1.3943355,0,0,1.3943355,136.99455,165.91349)" />
    <path
       sodipodi:type="arc"
       style="fill:#000000;fill-opacity:1;stroke:#000000;stroke-width:0;stroke-linecap:round;stroke-miterlimit:4;stroke-opacity:1;stroke-dasharray:none;stroke-dashoffset:0"
       id="path5624-0-6"
       sodipodi:cx="279.30719"
       sodipodi:cy="79.878265"
       sodipodi:rx="34.345188"
       sodipodi:ry="34.345188"
       d="m 313.65238,79.878265 c 0,18.968324 -15.37687,34.345185 -34.34519,34.345185 -18.96832,0 -34.34519,-15.376861 -34.34519,-34.345185 0,-18.968323 15.37687,-34.345188 34.34519,-34.345188 18.96832,0 34.34519,15.376865 34.34519,34.345188 z"
       transform="matrix(1.3943355,0,0,1.3943355,222.81365,351.75721)" />
    <path
       id="path5655-1-2-3-1"
       style="fill:#000000;fill-opacity:1;stroke:#000000;stroke-width:1px;stroke-linecap:butt;stroke-linejoin:miter;stroke-opacity:1"
       d="M 630.98651,438.44501 C 577.80269,383.01579 559.3524,333.45319 556.03668,281.4632 l -37.9389,29.0867 c 18.67956,12.59008 56.94629,54.58393 68.53759,139.70634 z"
       inkscape:connector-curvature="0"
       sodipodi:nodetypes="ccccc" />
    <path
       id="path5655-1-2-4"
       style="fill:#000000;fill-opacity:1;stroke:#000000;stroke-width:1px;stroke-linecap:butt;stroke-linejoin:miter;stroke-opacity:1"
       d="m 457.21419,446.47799 c 58.49807,-3.83808 95.47999,10.15793 125.82839,34.44315 l 3.97418,-37.41552 c -16.76203,4.82358 -60.01413,6.51821 -112.94792,-29.55348 z"
       inkscape:connector-curvature="0"
       sodipodi:nodetypes="ccccc" />
    <path
       id="path5655-1-2-5"
       style="fill:#000000;fill-opacity:1;stroke:#000000;stroke-width:1px;stroke-linecap:butt;stroke-linejoin:miter;stroke-opacity:1"
       d="m 335.05147,324.90855 c 71.07636,-34.93101 123.13466,-39.03633 171.40801,-28.39334 l -11.29006,-43.0467 c -18.75071,14.08562 -71.79883,38.66135 -153.27005,26.9799 z"
       inkscape:connector-curvature="0"
       sodipodi:nodetypes="ccccc" />
  </g>
</svg>
